<?xml version="1.0" standalone="no"?><!DOCTYPE svg PUBLIC "-//W3C//DTD SVG 1.1//EN" "http://www.w3.org/Graphics/SVG/1.1/DTD/svg11.dtd"><svg t="1535718591564" class="icon" style="" viewBox="0 0 1024 1024" fill="gray" version="1.1" xmlns="http://www.w3.org/2000/svg" p-id="2869" xmlns:xlink="http://www.w3.org/1999/xlink" width="32" height="32"><defs><style type="text/css"></style></defs><path d="M511.957021 962.877921c-248.26227 0-449.567066-201.847148-449.567066-450.922946 0-248.984724 201.305819-450.833919 449.567066-450.833919 248.340321 0 449.653023 201.849194 449.653023 450.833919C961.610044 761.031796 760.309342 962.877921 511.957021 962.877921L511.957021 962.877921zM511.957021 130.515542c-210.083739 0-380.446825 170.814364-380.446825 381.439432 0 210.715119 170.363086 381.53153 380.446825 381.53153 210.169697 0 380.440685-170.81641 380.440685-381.53153C892.397706 301.33093 722.126718 130.515542 511.957021 130.515542L511.957021 130.515542zM620.403669 567.327096c0 30.488385-11.126408 56.455803-33.381271 77.898161-22.25691 21.532409-49.941436 32.298614-83.057671 32.298614-31.396057 0-57.45148-9.04705-78.08031-27.142174-20.717857-18.0941-32.661887-41.798988-36.005029-71.022567l64.324004-7.782244c2.082428 16.375969 7.601118 28.953426 16.556071 37.638225 9.05012 8.6848 19.907399 13.028735 32.751938 13.028735 13.660114 0 25.242917-5.246491 34.654088-15.640492 9.407254-10.404977 14.111392-24.428366 14.111392-42.161239 0-16.646122-4.404037-29.946033-13.478989-39.71656-9.04705-9.773598-19.99745-14.658861-32.933063-14.658861-8.596795 0-18.72855 1.629103-30.581506 4.976338l7.328919-54.283324c18.0941 0.440301 31.849382-3.437286 41.345664-11.761881 9.502421-8.323573 14.297634-19.451004 14.297634-33.203216 0-11.67183-3.409383-21.081131-10.497075-28.046776-6.966669-6.967692-16.192797-10.494005-27.777647-10.494005-11.395538 0-21.077038 3.979638-29.132504 11.94096-8.138354 7.872295-13.025665 19.453051-14.744819 34.651194l-61.344137-10.403954c4.240861-21.080108 10.679223-37.818327 19.274996-50.39476 8.682753-12.57541 20.62883-22.408086 36.097126-29.67588 15.384385-7.237845 32.661887-10.854032 51.740688-10.854032 32.661887 0 58.900481 10.494005 78.714759 31.394011 16.191774 17.099447 24.334045 36.370349 24.334045 57.903781 0 30.579459-16.645099 54.917774-49.851385 73.101925 19.723204 4.240861 35.644825 13.843286 47.498804 28.681226S620.403669 546.336016 620.403669 567.327096L620.403669 567.327096z" p-id="2870"></path></svg>