<?xml version="1.0" standalone="no"?><!DOCTYPE svg PUBLIC "-//W3C//DTD SVG 1.1//EN" "http://www.w3.org/Graphics/SVG/1.1/DTD/svg11.dtd"><svg t="1530259482488" class="icon" style="" viewBox="0 0 1024 1024" version="1.1" xmlns="http://www.w3.org/2000/svg" p-id="2472" xmlns:xlink="http://www.w3.org/1999/xlink" width="22" height="22"><defs><style type="text/css"></style></defs><path d="M773.299445 593.259406l-403.000046 0c-44.713463 0-81.161284-36.329113-81.161284-81.10193s36.388467-81.161284 81.161284-81.161284l403.000046 0c44.772817 0 81.161284 36.388467 81.161284 81.161284S818.072262 593.259406 773.299445 593.259406zM250.299399 460.725807c-28.362292 0-51.43179 23.070402-51.43179 51.43179 0 28.301914 23.070402 51.372435 51.43179 51.372435l403.000046 0c28.421646 0 51.43179-23.070402 51.43179-51.372435 0-28.362292-23.069498-51.43179-51.43179-51.43179C773.299445 460.725807 250.299399 460.725807 250.299399 460.725807z" p-id="2473" fill="#8a8a8a"></path><path d="M807.84485 918.617943l-592.032404 0c-92.696545 0-168.090199-75.393654-168.090199-168.030845l0-476.860026c0-92.696545 75.393654-168.030845 168.090199-168.030845l131.46329 0c79.972146 0 117.788193 33.89148 151.144459 63.739684 31.691267 28.362292 61.599848 55.178294 127.658455 55.178294l181.885028 0c92.696545 0 168.030845 75.393654 168.030845 168.030845l0 357.942049C975.875694 843.283643 900.422686 918.617943 807.84485 918.617943zM215.81335 135.425722c-76.28602 0-138.360705 62.01533-138.360705 138.30135l0 476.860026c0 76.226665 62.074685 138.30135 138.360705 138.30135l592.032404 0c76.226665 0 138.30135-62.074685 138.30135-138.30135l0.059355-357.942049c0-76.28602-62.074685-138.30135-138.30135-138.30135L626.020199 254.343699c-77.475159 0-113.031638-31.929708-147.458333-62.729632-32.226481-28.897507-62.669254-56.188345-131.284026-56.188345L215.81335 135.425722z" p-id="2474" fill="#8a8a8a"></path></svg>